<?xml version="1.0" encoding="UTF-8" standalone="no"?><svg   xmlns:dc="http://purl.org/dc/elements/1.1/"   xmlns:cc="http://creativecommons.org/ns#"   xmlns:rdf="http://www.w3.org/1999/02/22-rdf-syntax-ns#"   xmlns:svg="http://www.w3.org/2000/svg"   xmlns="http://www.w3.org/2000/svg"   xmlns:sodipodi="http://sodipodi.sourceforge.net/DTD/sodipodi-0.dtd"   xmlns:inkscape="http://www.inkscape.org/namespaces/inkscape"   height="100px"   width="100px"   fill="#ffffff"   viewBox="0 0 32 32"   x="0px"   y="0px"   version="1.1"   id="svg8"   sodipodi:docname="noun_Monitor_2860159.svg"   inkscape:version="0.92.3 (2405546, 2018-03-11)">  <metadata     id="metadata14">    <rdf:RDF>      <cc:Work         rdf:about="">        <dc:format>image/svg+xml</dc:format>        <dc:type           rdf:resource="http://purl.org/dc/dcmitype/StillImage" />      </cc:Work>    </rdf:RDF>  </metadata>  <defs     id="defs12" />  <sodipodi:namedview     pagecolor="#ffffff"     bordercolor="#666666"     borderopacity="1"     objecttolerance="10"     gridtolerance="10"     guidetolerance="10"     inkscape:pageopacity="0"     inkscape:pageshadow="2"     inkscape:window-width="1920"     inkscape:window-height="1015"     id="namedview10"     showgrid="false"     inkscape:zoom="4.72"     inkscape:cx="-18.375975"     inkscape:cy="74.474993"     inkscape:window-x="0"     inkscape:window-y="0"     inkscape:window-maximized="1"     inkscape:current-layer="svg8" />  <title     id="title2">pc business technology strategy communication job professional</title>  <g     id="g6"     style="fill:#ffffff">    <path       d="M30,3H2A1,1,0,0,0,1,4V22a1,1,0,0,0,1,1H13v2H9.11A1.11,1.11,0,0,0,8,26.11V27H24v-.89A1.11,1.11,0,0,0,22.89,25H19V23H30a1,1,0,0,0,1-1V4A1,1,0,0,0,30,3ZM29,21H3V5H29Z"       id="path4"       style="fill:#ffffff" />  </g>  <g     id="g840"     transform="translate(0.67735697,0.19066717)"     style="fill:#ffffff;stroke:#ffffff">    <path       inkscape:connector-curvature="0"       id="path821"       d="M 10.978132,8.7014307 19.679141,17.40244"       style="fill:#ffffff;stroke:#ffffff;stroke-width:1.92000008;stroke-linecap:round;stroke-linejoin:miter;stroke-miterlimit:4;stroke-dasharray:none;stroke-opacity:1" />    <path       inkscape:connector-curvature="0"       id="path821-3"       d="m 19.667154,8.689446 -8.701009,8.701008"       style="fill:#ffffff;stroke:#ffffff;stroke-width:1.91999996;stroke-linecap:round;stroke-linejoin:miter;stroke-miterlimit:4;stroke-dasharray:none;stroke-opacity:1" />  </g></svg>