<svg height='100px' width='100px'  fill="#ffffff" xmlns="http://www.w3.org/2000/svg" data-name="Layer 1" viewBox="0 0 24 24" x="0px" y="0px"><title>svg,</title><path d="M21.5,13.527a.6.6,0,0,1-.424.735l-2.707.725L20.96,16.48a.6.6,0,1,1-.6,1.039l-2.586-1.493.725,2.708a.6.6,0,0,1-.424.735.611.611,0,0,1-.155.021.6.6,0,0,1-.579-.445l-1.035-3.866L12.6,13.039v4.278l2.83,2.83a.6.6,0,1,1-.848.849L12.6,19.014V22a.6.6,0,1,1-1.2,0V19.014L9.418,21a.6.6,0,1,1-.848-.849l2.83-2.83V13.039l-3.706,2.14L6.659,19.044a.6.6,0,0,1-.579.445.611.611,0,0,1-.155-.021.6.6,0,0,1-.424-.735l.725-2.708L3.64,17.52a.6.6,0,1,1-.6-1.039l2.586-1.493-2.707-.725A.6.6,0,0,1,3.229,13.1L7.1,14.139,10.8,12,7.1,9.861,3.229,10.9a.611.611,0,0,1-.155.021.6.6,0,0,1-.155-1.18l2.707-.725L3.04,7.52a.6.6,0,0,1,.6-1.039L6.226,7.974,5.5,5.266a.6.6,0,1,1,1.158-.311L7.694,8.821l3.706,2.14V6.683L8.57,3.853A.6.6,0,0,1,9.418,3L11.4,4.986V2a.6.6,0,1,1,1.2,0V4.986L14.582,3a.6.6,0,0,1,.848.849L12.6,6.683v4.278l3.706-2.14,1.035-3.866a.6.6,0,1,1,1.158.311l-.725,2.708L20.36,6.48a.6.6,0,0,1,.6,1.039L18.374,9.013l2.707.725a.6.6,0,0,1-.155,1.18.611.611,0,0,1-.155-.021L16.9,9.861,13.2,12l3.7,2.139L20.771,13.1A.6.6,0,0,1,21.5,13.527Z"></path></svg>