<?xml version="1.0" encoding="UTF-8" standalone="no"?><svg   xmlns:dc="http://purl.org/dc/elements/1.1/"   xmlns:cc="http://creativecommons.org/ns#"   xmlns:rdf="http://www.w3.org/1999/02/22-rdf-syntax-ns#"   xmlns:svg="http://www.w3.org/2000/svg"   xmlns="http://www.w3.org/2000/svg"   xmlns:sodipodi="http://sodipodi.sourceforge.net/DTD/sodipodi-0.dtd"   xmlns:inkscape="http://www.inkscape.org/namespaces/inkscape"   height="32"   width="32"   viewBox="0 0 8.96 6.4"   x="0px"   y="0px"   version="1.1"   id="svg8"   sodipodi:docname="noun_output_1825405.svg"   style="fill:none"   inkscape:version="0.92.3 (2405546, 2018-03-11)">  <metadata     id="metadata14">    <rdf:RDF>      <cc:Work         rdf:about="">        <dc:format>image/svg+xml</dc:format>        <dc:type           rdf:resource="http://purl.org/dc/dcmitype/StillImage" />        <dc:title></dc:title>      </cc:Work>    </rdf:RDF>  </metadata>  <defs     id="defs12" />  <sodipodi:namedview     pagecolor="#ffffff"     bordercolor="#666666"     borderopacity="1"     objecttolerance="10"     gridtolerance="10"     guidetolerance="10"     inkscape:pageopacity="0"     inkscape:pageshadow="2"     inkscape:window-width="1920"     inkscape:window-height="1015"     id="namedview10"     showgrid="false"     inkscape:zoom="6.675088"     inkscape:cx="15.134853"     inkscape:cy="53.544678"     inkscape:window-x="0"     inkscape:window-y="0"     inkscape:window-maximized="1"     inkscape:current-layer="svg8" />  <g     id="g824"     transform="translate(0,5.9704409)">    <path       style="fill:#000000;stroke-width:0.32000116"       inkscape:connector-curvature="0"       id="path2"       d="M 3.1999826,-1.970438 V -2.6104403 H 2.5599803 v 0.6400023 c 0,0.3534733 0.2865259,0.6400023 0.6400023,0.6400023 h 2.2400048 v 0.96000341 H 4.1599829 c -0.1767047,0 -0.3200012,0.14329652 -0.3200012,0.32000115 0,0.17670463 0.1432965,0.32000114 0.3200012,0.32000114 h 3.2000114 c 0.1767366,0 0.3200011,-0.14329651 0.3200011,-0.32000114 0,-0.17670463 -0.1432645,-0.32000115 -0.3200011,-0.32000115 H 6.0799897 V -1.3304357 h 2.240008 C 8.673471,-1.3304357 8.96,-1.6169647 8.96,-1.970438 v -3.2000114 c 0,-0.3534778 -0.286529,-0.6400023 -0.6400023,-0.6400023 H 3.1999826 c -0.3534764,0 -0.6400023,0.2865245 -0.6400023,0.6400023 v 0.6400023 h 0.6400023 v -0.6400023 h 5.1200151 v 3.2000114 z" />    <path       style="fill:#000000;stroke-width:0.32000116"       inkscape:connector-curvature="0"       id="path4"       d="M 0.14380019,-3.2984715 C 0.12157355,-3.3131564 0.10083108,-3.3308525 0.08215933,-3.3515757 0.02649504,-3.413432 -6.1444063e-4,-3.491029 1.0562211e-5,-3.5681589 -6.1444063e-4,-3.645308 0.02649504,-3.7227099 0.08215933,-3.7845661 c 0.01867175,-0.020723 0.03941422,-0.038416 0.06164086,-0.053104 l 1.38891251,-1.250571 c 0.1313284,-0.1182629 0.3336716,-0.107658 0.4519152,0.02367 0.118282,0.1313477 0.1076548,0.3336748 -0.023674,0.4519345 L 0.80083486,-3.5680597 1.9609542,-2.523496 c 0.1313285,0.1182404 0.1419557,0.3205772 0.023674,0.4519376 -0.1182436,0.1313285 -0.3205868,0.1419205 -0.4519152,0.023648 z" />    <path       style="fill:#000000;stroke-width:0.32000116"       inkscape:connector-curvature="0"       id="path6"       d="m 1.3534128,-3.5680789 c 0,0.1767366 0.1432837,0.3200011 0.3200012,0.3200011 h 1.9200068 c 0.1767047,0 0.3200012,-0.1432645 0.3200012,-0.3200011 0,-0.1767206 -0.1432965,-0.3200011 -0.3200012,-0.3200011 H 1.673414 c -0.1767175,0 -0.3200012,0.1432805 -0.3200012,0.3200011 z" />  </g></svg>